  0
SECTION
  2
BLOCKS
  0
ENDSEC
  0
SECTION
  2
ENTITIES
  0
LINE
  8
0
 10
16.5961
 20
-19.5725
 11
16.5746
 21
-19.5834
  0
LINE
  8
0
 10
16.5746
 20
-19.5834
 11
16.4737
 21
-19.6271
  0
LINE
  8
0
 10
16.4737
 20
-19.6271
 11
16.3703
 21
-19.6643
  0
LINE
  8
0
 10
16.3703
 20
-19.6643
 11
16.2647
 21
-19.695
  0
LINE
  8
0
 10
16.2647
 20
-19.695
 11
16.1574
 21
-19.719
  0
LINE
  8
0
 10
16.1574
 20
-19.719
 11
16.0488
 21
-19.7362
  0
LINE
  8
0
 10
16.0488
 20
-19.7362
 11
15.9394
 21
-19.7465
  0
LINE
  8
0
 10
15.9394
 20
-19.7465
 11
15.8295
 21
-19.75
  0
LINE
  8
0
 10
15.8295
 20
-19.75
 11
15.7196
 21
-19.7465
  0
LINE
  8
0
 10
15.7196
 20
-19.7465
 11
15.6102
 21
-19.7362
  0
LINE
  8
0
 10
15.6102
 20
-19.7362
 11
15.5016
 21
-19.719
  0
LINE
  8
0
 10
15.5016
 20
-19.719
 11
15.3943
 21
-19.695
  0
LINE
  8
0
 10
15.3943
 20
-19.695
 11
15.2887
 21
-19.6643
  0
LINE
  8
0
 10
15.2887
 20
-19.6643
 11
15.1853
 21
-19.6271
  0
LINE
  8
0
 10
15.1853
 20
-19.6271
 11
15.0844
 21
-19.5834
  0
LINE
  8
0
 10
15.0844
 20
-19.5834
 11
14.9864
 21
-19.5335
  0
LINE
  8
0
 10
14.9864
 20
-19.5335
 11
14.8918
 21
-19.4776
  0
LINE
  8
0
 10
14.8918
 20
-19.4776
 11
14.8009
 21
-19.4158
  0
LINE
  8
0
 10
14.8009
 20
-19.4158
 11
14.714
 21
-19.3484
  0
LINE
  8
0
 10
14.714
 20
-19.3484
 11
14.6315
 21
-19.2757
  0
LINE
  8
0
 10
14.6315
 20
-19.2757
 11
14.5538
 21
-19.198
  0
LINE
  8
0
 10
14.5538
 20
-19.198
 11
14.4811
 21
-19.1155
  0
LINE
  8
0
 10
14.4811
 20
-19.1155
 11
14.4137
 21
-19.0286
  0
LINE
  8
0
 10
14.4137
 20
-19.0286
 11
14.3519
 21
-18.9377
  0
LINE
  8
0
 10
14.3519
 20
-18.9377
 11
14.296
 21
-18.8431
  0
LINE
  8
0
 10
14.296
 20
-18.8431
 11
14.246
 21
-18.7451
  0
LINE
  8
0
 10
14.246
 20
-18.7451
 11
14.2024
 21
-18.6442
  0
LINE
  8
0
 10
14.2024
 20
-18.6442
 11
14.1651
 21
-18.5408
  0
LINE
  8
0
 10
14.1651
 20
-18.5408
 11
14.1345
 21
-18.4352
  0
LINE
  8
0
 10
14.1345
 20
-18.4352
 11
14.1105
 21
-18.3279
  0
LINE
  8
0
 10
14.1105
 20
-18.3279
 11
14.0933
 21
-18.2193
  0
LINE
  8
0
 10
14.0933
 20
-18.2193
 11
14.0829
 21
-18.1099
  0
LINE
  8
0
 10
14.0829
 20
-18.1099
 11
14.0795
 21
-18
  0
LINE
  8
0
 10
14.0795
 20
-18
 11
14.0829
 21
-17.8901
  0
LINE
  8
0
 10
14.0829
 20
-17.8901
 11
14.0933
 21
-17.7807
  0
LINE
  8
0
 10
14.0933
 20
-17.7807
 11
14.1105
 21
-17.6721
  0
LINE
  8
0
 10
14.1105
 20
-17.6721
 11
14.1345
 21
-17.5648
  0
LINE
  8
0
 10
14.1345
 20
-17.5648
 11
14.1651
 21
-17.4592
  0
LINE
  8
0
 10
14.1651
 20
-17.4592
 11
14.2024
 21
-17.3558
  0
LINE
  8
0
 10
14.2024
 20
-17.3558
 11
14.246
 21
-17.2549
  0
LINE
  8
0
 10
14.246
 20
-17.2549
 11
14.296
 21
-17.1569
  0
LINE
  8
0
 10
14.296
 20
-17.1569
 11
14.3519
 21
-17.0623
  0
LINE
  8
0
 10
14.3519
 20
-17.0623
 11
14.4137
 21
-16.9714
  0
LINE
  8
0
 10
14.4137
 20
-16.9714
 11
14.4811
 21
-16.8845
  0
LINE
  8
0
 10
14.4811
 20
-16.8845
 11
14.5538
 21
-16.802
  0
LINE
  8
0
 10
14.5538
 20
-16.802
 11
14.6315
 21
-16.7243
  0
LINE
  8
0
 10
14.6315
 20
-16.7243
 11
14.714
 21
-16.6516
  0
LINE
  8
0
 10
14.714
 20
-16.6516
 11
14.8009
 21
-16.5842
  0
LINE
  8
0
 10
14.8009
 20
-16.5842
 11
14.8918
 21
-16.5224
  0
LINE
  8
0
 10
14.8918
 20
-16.5224
 11
14.9864
 21
-16.4665
  0
LINE
  8
0
 10
14.9864
 20
-16.4665
 11
15.0844
 21
-16.4165
  0
LINE
  8
0
 10
15.0844
 20
-16.4165
 11
15.1853
 21
-16.3729
  0
LINE
  8
0
 10
15.1853
 20
-16.3729
 11
15.2887
 21
-16.3356
  0
LINE
  8
0
 10
15.2887
 20
-16.3356
 11
15.3943
 21
-16.305
  0
LINE
  8
0
 10
15.3943
 20
-16.305
 11
15.5016
 21
-16.281
  0
LINE
  8
0
 10
15.5016
 20
-16.281
 11
15.6102
 21
-16.2638
  0
LINE
  8
0
 10
15.6102
 20
-16.2638
 11
15.7196
 21
-16.2534
  0
LINE
  8
0
 10
15.7196
 20
-16.2534
 11
15.8295
 21
-16.25
  0
LINE
  8
0
 10
15.8295
 20
-16.25
 11
15.9394
 21
-16.2534
  0
LINE
  8
0
 10
15.9394
 20
-16.2534
 11
16.0488
 21
-16.2638
  0
LINE
  8
0
 10
16.0488
 20
-16.2638
 11
16.1574
 21
-16.281
  0
LINE
  8
0
 10
16.1574
 20
-16.281
 11
16.2647
 21
-16.305
  0
LINE
  8
0
 10
16.2647
 20
-16.305
 11
16.3703
 21
-16.3356
  0
LINE
  8
0
 10
16.3703
 20
-16.3356
 11
16.4737
 21
-16.3729
  0
LINE
  8
0
 10
16.4737
 20
-16.3729
 11
16.5746
 21
-16.4165
  0
LINE
  8
0
 10
16.5746
 20
-16.4165
 11
16.6726
 21
-16.4665
  0
LINE
  8
0
 10
16.6726
 20
-16.4665
 11
16.7672
 21
-16.5224
  0
LINE
  8
0
 10
16.7672
 20
-16.5224
 11
16.8581
 21
-16.5842
  0
LINE
  8
0
 10
16.8581
 20
-16.5842
 11
16.945
 21
-16.6516
  0
LINE
  8
0
 10
16.945
 20
-16.6516
 11
17.0275
 21
-16.7243
  0
LINE
  8
0
 10
17.0275
 20
-16.7243
 11
17.1052
 21
-16.802
  0
LINE
  8
0
 10
17.1052
 20
-16.802
 11
17.1779
 21
-16.8845
  0
LINE
  8
0
 10
17.1779
 20
-16.8845
 11
17.2453
 21
-16.9714
  0
LINE
  8
0
 10
17.2453
 20
-16.9714
 11
17.3071
 21
-17.0623
  0
LINE
  8
0
 10
17.3071
 20
-17.0623
 11
17.363
 21
-17.1569
  0
LINE
  8
0
 10
17.363
 20
-17.1569
 11
17.4129
 21
-17.2549
  0
LINE
  8
0
 10
17.4129
 20
-17.2549
 11
17.4566
 21
-17.3558
  0
LINE
  8
0
 10
17.4566
 20
-17.3558
 11
17.4938
 21
-17.4592
  0
LINE
  8
0
 10
17.4938
 20
-17.4592
 11
17.5245
 21
-17.5648
  0
LINE
  8
0
 10
17.5245
 20
-17.5648
 11
17.5485
 21
-17.6721
  0
LINE
  8
0
 10
17.5485
 20
-17.6721
 11
17.5657
 21
-17.7807
  0
LINE
  8
0
 10
17.5657
 20
-17.7807
 11
17.5748
 21
-17.8772
  0
LINE
  8
0
 10
17.5748
 20
-17.8772
 11
22.0575
 21
-10.113
  0
LINE
  8
0
 10
22.0575
 20
-10.113
 11
22.0575
 21
10.113
  0
LINE
  8
0
 10
22.0575
 20
10.113
 11
17.5748
 21
17.8772
  0
LINE
  8
0
 10
17.5748
 20
17.8772
 11
17.5657
 21
17.7807
  0
LINE
  8
0
 10
17.5657
 20
17.7807
 11
17.5485
 21
17.6721
  0
LINE
  8
0
 10
17.5485
 20
17.6721
 11
17.5245
 21
17.5648
  0
LINE
  8
0
 10
17.5245
 20
17.5648
 11
17.4938
 21
17.4592
  0
LINE
  8
0
 10
17.4938
 20
17.4592
 11
17.4566
 21
17.3558
  0
LINE
  8
0
 10
17.4566
 20
17.3558
 11
17.4129
 21
17.2549
  0
LINE
  8
0
 10
17.4129
 20
17.2549
 11
17.363
 21
17.1569
  0
LINE
  8
0
 10
17.363
 20
17.1569
 11
17.3071
 21
17.0623
  0
LINE
  8
0
 10
17.3071
 20
17.0623
 11
17.2453
 21
16.9714
  0
LINE
  8
0
 10
17.2453
 20
16.9714
 11
17.1779
 21
16.8845
  0
LINE
  8
0
 10
17.1779
 20
16.8845
 11
17.1052
 21
16.802
  0
LINE
  8
0
 10
17.1052
 20
16.802
 11
17.0275
 21
16.7243
  0
LINE
  8
0
 10
17.0275
 20
16.7243
 11
16.945
 21
16.6516
  0
LINE
  8
0
 10
16.945
 20
16.6516
 11
16.8581
 21
16.5842
  0
LINE
  8
0
 10
16.8581
 20
16.5842
 11
16.7672
 21
16.5224
  0
LINE
  8
0
 10
16.7672
 20
16.5224
 11
16.6726
 21
16.4665
  0
LINE
  8
0
 10
16.6726
 20
16.4665
 11
16.5746
 21
16.4165
  0
LINE
  8
0
 10
16.5746
 20
16.4165
 11
16.4737
 21
16.3729
  0
LINE
  8
0
 10
16.4737
 20
16.3729
 11
16.3703
 21
16.3356
  0
LINE
  8
0
 10
16.3703
 20
16.3356
 11
16.2647
 21
16.305
  0
LINE
  8
0
 10
16.2647
 20
16.305
 11
16.1574
 21
16.281
  0
LINE
  8
0
 10
16.1574
 20
16.281
 11
16.0488
 21
16.2638
  0
LINE
  8
0
 10
16.0488
 20
16.2638
 11
15.9394
 21
16.2534
  0
LINE
  8
0
 10
15.9394
 20
16.2534
 11
15.8295
 21
16.25
  0
LINE
  8
0
 10
15.8295
 20
16.25
 11
15.7196
 21
16.2534
  0
LINE
  8
0
 10
15.7196
 20
16.2534
 11
15.6102
 21
16.2638
  0
LINE
  8
0
 10
15.6102
 20
16.2638
 11
15.5016
 21
16.281
  0
LINE
  8
0
 10
15.5016
 20
16.281
 11
15.3943
 21
16.305
  0
LINE
  8
0
 10
15.3943
 20
16.305
 11
15.2887
 21
16.3356
  0
LINE
  8
0
 10
15.2887
 20
16.3356
 11
15.1853
 21
16.3729
  0
LINE
  8
0
 10
15.1853
 20
16.3729
 11
15.0844
 21
16.4165
  0
LINE
  8
0
 10
15.0844
 20
16.4165
 11
14.9864
 21
16.4665
  0
LINE
  8
0
 10
14.9864
 20
16.4665
 11
14.8918
 21
16.5224
  0
LINE
  8
0
 10
14.8918
 20
16.5224
 11
14.8009
 21
16.5842
  0
LINE
  8
0
 10
14.8009
 20
16.5842
 11
14.714
 21
16.6516
  0
LINE
  8
0
 10
14.714
 20
16.6516
 11
14.6315
 21
16.7243
  0
LINE
  8
0
 10
14.6315
 20
16.7243
 11
14.5538
 21
16.802
  0
LINE
  8
0
 10
14.5538
 20
16.802
 11
14.4811
 21
16.8845
  0
LINE
  8
0
 10
14.4811
 20
16.8845
 11
14.4137
 21
16.9714
  0
LINE
  8
0
 10
14.4137
 20
16.9714
 11
14.3519
 21
17.0623
  0
LINE
  8
0
 10
14.3519
 20
17.0623
 11
14.296
 21
17.1569
  0
LINE
  8
0
 10
14.296
 20
17.1569
 11
14.246
 21
17.2549
  0
LINE
  8
0
 10
14.246
 20
17.2549
 11
14.2024
 21
17.3558
  0
LINE
  8
0
 10
14.2024
 20
17.3558
 11
14.1651
 21
17.4592
  0
LINE
  8
0
 10
14.1651
 20
17.4592
 11
14.1345
 21
17.5648
  0
LINE
  8
0
 10
14.1345
 20
17.5648
 11
14.1105
 21
17.6721
  0
LINE
  8
0
 10
14.1105
 20
17.6721
 11
14.0933
 21
17.7807
  0
LINE
  8
0
 10
14.0933
 20
17.7807
 11
14.0829
 21
17.8901
  0
LINE
  8
0
 10
14.0829
 20
17.8901
 11
14.0795
 21
18
  0
LINE
  8
0
 10
14.0795
 20
18
 11
14.0829
 21
18.1099
  0
LINE
  8
0
 10
14.0829
 20
18.1099
 11
14.0933
 21
18.2193
  0
LINE
  8
0
 10
14.0933
 20
18.2193
 11
14.1105
 21
18.3279
  0
LINE
  8
0
 10
14.1105
 20
18.3279
 11
14.1345
 21
18.4352
  0
LINE
  8
0
 10
14.1345
 20
18.4352
 11
14.1651
 21
18.5408
  0
LINE
  8
0
 10
14.1651
 20
18.5408
 11
14.2024
 21
18.6442
  0
LINE
  8
0
 10
14.2024
 20
18.6442
 11
14.246
 21
18.7451
  0
LINE
  8
0
 10
14.246
 20
18.7451
 11
14.296
 21
18.8431
  0
LINE
  8
0
 10
14.296
 20
18.8431
 11
14.3519
 21
18.9377
  0
LINE
  8
0
 10
14.3519
 20
18.9377
 11
14.4137
 21
19.0286
  0
LINE
  8
0
 10
14.4137
 20
19.0286
 11
14.4811
 21
19.1155
  0
LINE
  8
0
 10
14.4811
 20
19.1155
 11
14.5538
 21
19.198
  0
LINE
  8
0
 10
14.5538
 20
19.198
 11
14.6315
 21
19.2757
  0
LINE
  8
0
 10
14.6315
 20
19.2757
 11
14.714
 21
19.3484
  0
LINE
  8
0
 10
14.714
 20
19.3484
 11
14.8009
 21
19.4158
  0
LINE
  8
0
 10
14.8009
 20
19.4158
 11
14.8918
 21
19.4776
  0
LINE
  8
0
 10
14.8918
 20
19.4776
 11
14.9864
 21
19.5335
  0
LINE
  8
0
 10
14.9864
 20
19.5335
 11
15.0844
 21
19.5834
  0
LINE
  8
0
 10
15.0844
 20
19.5834
 11
15.1853
 21
19.6271
  0
LINE
  8
0
 10
15.1853
 20
19.6271
 11
15.2887
 21
19.6643
  0
LINE
  8
0
 10
15.2887
 20
19.6643
 11
15.3943
 21
19.695
  0
LINE
  8
0
 10
15.3943
 20
19.695
 11
15.5016
 21
19.719
  0
LINE
  8
0
 10
15.5016
 20
19.719
 11
15.6102
 21
19.7362
  0
LINE
  8
0
 10
15.6102
 20
19.7362
 11
15.7196
 21
19.7465
  0
LINE
  8
0
 10
15.7196
 20
19.7465
 11
15.8295
 21
19.75
  0
LINE
  8
0
 10
15.8295
 20
19.75
 11
15.9394
 21
19.7465
  0
LINE
  8
0
 10
15.9394
 20
19.7465
 11
16.0488
 21
19.7362
  0
LINE
  8
0
 10
16.0488
 20
19.7362
 11
16.1574
 21
19.719
  0
LINE
  8
0
 10
16.1574
 20
19.719
 11
16.2647
 21
19.695
  0
LINE
  8
0
 10
16.2647
 20
19.695
 11
16.3703
 21
19.6643
  0
LINE
  8
0
 10
16.3703
 20
19.6643
 11
16.4737
 21
19.6271
  0
LINE
  8
0
 10
16.4737
 20
19.6271
 11
16.5746
 21
19.5834
  0
LINE
  8
0
 10
16.5746
 20
19.5834
 11
16.5961
 21
19.5725
  0
LINE
  8
0
 10
16.5961
 20
19.5725
 11
13.9481
 21
24.1589
  0
LINE
  8
0
 10
13.9481
 20
24.1589
 11
-13.9481
 21
24.1589
  0
LINE
  8
0
 10
-13.9481
 20
24.1589
 11
-16.5961
 21
19.5725
  0
LINE
  8
0
 10
-16.5961
 20
19.5725
 11
-16.5746
 21
19.5834
  0
LINE
  8
0
 10
-16.5746
 20
19.5834
 11
-16.4737
 21
19.6271
  0
LINE
  8
0
 10
-16.4737
 20
19.6271
 11
-16.3703
 21
19.6643
  0
LINE
  8
0
 10
-16.3703
 20
19.6643
 11
-16.2647
 21
19.695
  0
LINE
  8
0
 10
-16.2647
 20
19.695
 11
-16.1574
 21
19.719
  0
LINE
  8
0
 10
-16.1574
 20
19.719
 11
-16.0488
 21
19.7362
  0
LINE
  8
0
 10
-16.0488
 20
19.7362
 11
-15.9394
 21
19.7465
  0
LINE
  8
0
 10
-15.9394
 20
19.7465
 11
-15.8295
 21
19.75
  0
LINE
  8
0
 10
-15.8295
 20
19.75
 11
-15.7196
 21
19.7465
  0
LINE
  8
0
 10
-15.7196
 20
19.7465
 11
-15.6102
 21
19.7362
  0
LINE
  8
0
 10
-15.6102
 20
19.7362
 11
-15.5016
 21
19.719
  0
LINE
  8
0
 10
-15.5016
 20
19.719
 11
-15.3943
 21
19.695
  0
LINE
  8
0
 10
-15.3943
 20
19.695
 11
-15.2887
 21
19.6643
  0
LINE
  8
0
 10
-15.2887
 20
19.6643
 11
-15.1853
 21
19.6271
  0
LINE
  8
0
 10
-15.1853
 20
19.6271
 11
-15.0844
 21
19.5834
  0
LINE
  8
0
 10
-15.0844
 20
19.5834
 11
-14.9864
 21
19.5335
  0
LINE
  8
0
 10
-14.9864
 20
19.5335
 11
-14.8918
 21
19.4776
  0
LINE
  8
0
 10
-14.8918
 20
19.4776
 11
-14.8009
 21
19.4158
  0
LINE
  8
0
 10
-14.8009
 20
19.4158
 11
-14.714
 21
19.3484
  0
LINE
  8
0
 10
-14.714
 20
19.3484
 11
-14.6315
 21
19.2757
  0
LINE
  8
0
 10
-14.6315
 20
19.2757
 11
-14.5538
 21
19.198
  0
LINE
  8
0
 10
-14.5538
 20
19.198
 11
-14.4811
 21
19.1155
  0
LINE
  8
0
 10
-14.4811
 20
19.1155
 11
-14.4137
 21
19.0286
  0
LINE
  8
0
 10
-14.4137
 20
19.0286
 11
-14.3519
 21
18.9377
  0
LINE
  8
0
 10
-14.3519
 20
18.9377
 11
-14.296
 21
18.8431
  0
LINE
  8
0
 10
-14.296
 20
18.8431
 11
-14.246
 21
18.7451
  0
LINE
  8
0
 10
-14.246
 20
18.7451
 11
-14.2024
 21
18.6442
  0
LINE
  8
0
 10
-14.2024
 20
18.6442
 11
-14.1651
 21
18.5408
  0
LINE
  8
0
 10
-14.1651
 20
18.5408
 11
-14.1345
 21
18.4352
  0
LINE
  8
0
 10
-14.1345
 20
18.4352
 11
-14.1105
 21
18.3279
  0
LINE
  8
0
 10
-14.1105
 20
18.3279
 11
-14.0933
 21
18.2193
  0
LINE
  8
0
 10
-14.0933
 20
18.2193
 11
-14.0829
 21
18.1099
  0
LINE
  8
0
 10
-14.0829
 20
18.1099
 11
-14.0795
 21
18
  0
LINE
  8
0
 10
-14.0795
 20
18
 11
-14.0829
 21
17.8901
  0
LINE
  8
0
 10
-14.0829
 20
17.8901
 11
-14.0933
 21
17.7807
  0
LINE
  8
0
 10
-14.0933
 20
17.7807
 11
-14.1105
 21
17.6721
  0
LINE
  8
0
 10
-14.1105
 20
17.6721
 11
-14.1345
 21
17.5648
  0
LINE
  8
0
 10
-14.1345
 20
17.5648
 11
-14.1651
 21
17.4592
  0
LINE
  8
0
 10
-14.1651
 20
17.4592
 11
-14.2024
 21
17.3558
  0
LINE
  8
0
 10
-14.2024
 20
17.3558
 11
-14.246
 21
17.2549
  0
LINE
  8
0
 10
-14.246
 20
17.2549
 11
-14.296
 21
17.1569
  0
LINE
  8
0
 10
-14.296
 20
17.1569
 11
-14.3519
 21
17.0623
  0
LINE
  8
0
 10
-14.3519
 20
17.0623
 11
-14.4137
 21
16.9714
  0
LINE
  8
0
 10
-14.4137
 20
16.9714
 11
-14.4811
 21
16.8845
  0
LINE
  8
0
 10
-14.4811
 20
16.8845
 11
-14.5538
 21
16.802
  0
LINE
  8
0
 10
-14.5538
 20
16.802
 11
-14.6315
 21
16.7243
  0
LINE
  8
0
 10
-14.6315
 20
16.7243
 11
-14.714
 21
16.6516
  0
LINE
  8
0
 10
-14.714
 20
16.6516
 11
-14.8009
 21
16.5842
  0
LINE
  8
0
 10
-14.8009
 20
16.5842
 11
-14.8918
 21
16.5224
  0
LINE
  8
0
 10
-14.8918
 20
16.5224
 11
-14.9864
 21
16.4665
  0
LINE
  8
0
 10
-14.9864
 20
16.4665
 11
-15.0844
 21
16.4165
  0
LINE
  8
0
 10
-15.0844
 20
16.4165
 11
-15.1853
 21
16.3729
  0
LINE
  8
0
 10
-15.1853
 20
16.3729
 11
-15.2887
 21
16.3356
  0
LINE
  8
0
 10
-15.2887
 20
16.3356
 11
-15.3943
 21
16.305
  0
LINE
  8
0
 10
-15.3943
 20
16.305
 11
-15.5016
 21
16.281
  0
LINE
  8
0
 10
-15.5016
 20
16.281
 11
-15.6102
 21
16.2638
  0
LINE
  8
0
 10
-15.6102
 20
16.2638
 11
-15.7196
 21
16.2534
  0
LINE
  8
0
 10
-15.7196
 20
16.2534
 11
-15.8295
 21
16.25
  0
LINE
  8
0
 10
-15.8295
 20
16.25
 11
-15.9394
 21
16.2534
  0
LINE
  8
0
 10
-15.9394
 20
16.2534
 11
-16.0488
 21
16.2638
  0
LINE
  8
0
 10
-16.0488
 20
16.2638
 11
-16.1574
 21
16.281
  0
LINE
  8
0
 10
-16.1574
 20
16.281
 11
-16.2647
 21
16.305
  0
LINE
  8
0
 10
-16.2647
 20
16.305
 11
-16.3703
 21
16.3356
  0
LINE
  8
0
 10
-16.3703
 20
16.3356
 11
-16.4737
 21
16.3729
  0
LINE
  8
0
 10
-16.4737
 20
16.3729
 11
-16.5746
 21
16.4165
  0
LINE
  8
0
 10
-16.5746
 20
16.4165
 11
-16.6726
 21
16.4665
  0
LINE
  8
0
 10
-16.6726
 20
16.4665
 11
-16.7672
 21
16.5224
  0
LINE
  8
0
 10
-16.7672
 20
16.5224
 11
-16.8581
 21
16.5842
  0
LINE
  8
0
 10
-16.8581
 20
16.5842
 11
-16.945
 21
16.6516
  0
LINE
  8
0
 10
-16.945
 20
16.6516
 11
-17.0275
 21
16.7243
  0
LINE
  8
0
 10
-17.0275
 20
16.7243
 11
-17.1052
 21
16.802
  0
LINE
  8
0
 10
-17.1052
 20
16.802
 11
-17.1779
 21
16.8845
  0
LINE
  8
0
 10
-17.1779
 20
16.8845
 11
-17.2453
 21
16.9714
  0
LINE
  8
0
 10
-17.2453
 20
16.9714
 11
-17.3071
 21
17.0623
  0
LINE
  8
0
 10
-17.3071
 20
17.0623
 11
-17.363
 21
17.1569
  0
LINE
  8
0
 10
-17.363
 20
17.1569
 11
-17.4129
 21
17.2549
  0
LINE
  8
0
 10
-17.4129
 20
17.2549
 11
-17.4566
 21
17.3558
  0
LINE
  8
0
 10
-17.4566
 20
17.3558
 11
-17.4938
 21
17.4592
  0
LINE
  8
0
 10
-17.4938
 20
17.4592
 11
-17.5245
 21
17.5648
  0
LINE
  8
0
 10
-17.5245
 20
17.5648
 11
-17.5485
 21
17.6721
  0
LINE
  8
0
 10
-17.5485
 20
17.6721
 11
-17.5657
 21
17.7807
  0
LINE
  8
0
 10
-17.5657
 20
17.7807
 11
-17.5748
 21
17.8772
  0
LINE
  8
0
 10
-17.5748
 20
17.8772
 11
-22.0575
 21
10.113
  0
LINE
  8
0
 10
-22.0575
 20
10.113
 11
-22.0575
 21
-10.113
  0
LINE
  8
0
 10
-22.0575
 20
-10.113
 11
-17.5748
 21
-17.8772
  0
LINE
  8
0
 10
-17.5748
 20
-17.8772
 11
-17.5657
 21
-17.7807
  0
LINE
  8
0
 10
-17.5657
 20
-17.7807
 11
-17.5485
 21
-17.6721
  0
LINE
  8
0
 10
-17.5485
 20
-17.6721
 11
-17.5245
 21
-17.5648
  0
LINE
  8
0
 10
-17.5245
 20
-17.5648
 11
-17.4938
 21
-17.4592
  0
LINE
  8
0
 10
-17.4938
 20
-17.4592
 11
-17.4566
 21
-17.3558
  0
LINE
  8
0
 10
-17.4566
 20
-17.3558
 11
-17.4129
 21
-17.2549
  0
LINE
  8
0
 10
-17.4129
 20
-17.2549
 11
-17.363
 21
-17.1569
  0
LINE
  8
0
 10
-17.363
 20
-17.1569
 11
-17.3071
 21
-17.0623
  0
LINE
  8
0
 10
-17.3071
 20
-17.0623
 11
-17.2453
 21
-16.9714
  0
LINE
  8
0
 10
-17.2453
 20
-16.9714
 11
-17.1779
 21
-16.8845
  0
LINE
  8
0
 10
-17.1779
 20
-16.8845
 11
-17.1052
 21
-16.802
  0
LINE
  8
0
 10
-17.1052
 20
-16.802
 11
-17.0275
 21
-16.7243
  0
LINE
  8
0
 10
-17.0275
 20
-16.7243
 11
-16.945
 21
-16.6516
  0
LINE
  8
0
 10
-16.945
 20
-16.6516
 11
-16.8581
 21
-16.5842
  0
LINE
  8
0
 10
-16.8581
 20
-16.5842
 11
-16.7672
 21
-16.5224
  0
LINE
  8
0
 10
-16.7672
 20
-16.5224
 11
-16.6726
 21
-16.4665
  0
LINE
  8
0
 10
-16.6726
 20
-16.4665
 11
-16.5746
 21
-16.4165
  0
LINE
  8
0
 10
-16.5746
 20
-16.4165
 11
-16.4737
 21
-16.3729
  0
LINE
  8
0
 10
-16.4737
 20
-16.3729
 11
-16.3703
 21
-16.3356
  0
LINE
  8
0
 10
-16.3703
 20
-16.3356
 11
-16.2647
 21
-16.305
  0
LINE
  8
0
 10
-16.2647
 20
-16.305
 11
-16.1574
 21
-16.281
  0
LINE
  8
0
 10
-16.1574
 20
-16.281
 11
-16.0488
 21
-16.2638
  0
LINE
  8
0
 10
-16.0488
 20
-16.2638
 11
-15.9394
 21
-16.2534
  0
LINE
  8
0
 10
-15.9394
 20
-16.2534
 11
-15.8295
 21
-16.25
  0
LINE
  8
0
 10
-15.8295
 20
-16.25
 11
-15.7196
 21
-16.2534
  0
LINE
  8
0
 10
-15.7196
 20
-16.2534
 11
-15.6102
 21
-16.2638
  0
LINE
  8
0
 10
-15.6102
 20
-16.2638
 11
-15.5016
 21
-16.281
  0
LINE
  8
0
 10
-15.5016
 20
-16.281
 11
-15.3943
 21
-16.305
  0
LINE
  8
0
 10
-15.3943
 20
-16.305
 11
-15.2887
 21
-16.3356
  0
LINE
  8
0
 10
-15.2887
 20
-16.3356
 11
-15.1853
 21
-16.3729
  0
LINE
  8
0
 10
-15.1853
 20
-16.3729
 11
-15.0844
 21
-16.4165
  0
LINE
  8
0
 10
-15.0844
 20
-16.4165
 11
-14.9864
 21
-16.4665
  0
LINE
  8
0
 10
-14.9864
 20
-16.4665
 11
-14.8918
 21
-16.5224
  0
LINE
  8
0
 10
-14.8918
 20
-16.5224
 11
-14.8009
 21
-16.5842
  0
LINE
  8
0
 10
-14.8009
 20
-16.5842
 11
-14.714
 21
-16.6516
  0
LINE
  8
0
 10
-14.714
 20
-16.6516
 11
-14.6315
 21
-16.7243
  0
LINE
  8
0
 10
-14.6315
 20
-16.7243
 11
-14.5538
 21
-16.802
  0
LINE
  8
0
 10
-14.5538
 20
-16.802
 11
-14.4811
 21
-16.8845
  0
LINE
  8
0
 10
-14.4811
 20
-16.8845
 11
-14.4137
 21
-16.9714
  0
LINE
  8
0
 10
-14.4137
 20
-16.9714
 11
-14.3519
 21
-17.0623
  0
LINE
  8
0
 10
-14.3519
 20
-17.0623
 11
-14.296
 21
-17.1569
  0
LINE
  8
0
 10
-14.296
 20
-17.1569
 11
-14.246
 21
-17.2549
  0
LINE
  8
0
 10
-14.246
 20
-17.2549
 11
-14.2024
 21
-17.3558
  0
LINE
  8
0
 10
-14.2024
 20
-17.3558
 11
-14.1651
 21
-17.4592
  0
LINE
  8
0
 10
-14.1651
 20
-17.4592
 11
-14.1345
 21
-17.5648
  0
LINE
  8
0
 10
-14.1345
 20
-17.5648
 11
-14.1105
 21
-17.6721
  0
LINE
  8
0
 10
-14.1105
 20
-17.6721
 11
-14.0933
 21
-17.7807
  0
LINE
  8
0
 10
-14.0933
 20
-17.7807
 11
-14.0829
 21
-17.8901
  0
LINE
  8
0
 10
-14.0829
 20
-17.8901
 11
-14.0795
 21
-18
  0
LINE
  8
0
 10
-14.0795
 20
-18
 11
-14.0829
 21
-18.1099
  0
LINE
  8
0
 10
-14.0829
 20
-18.1099
 11
-14.0933
 21
-18.2193
  0
LINE
  8
0
 10
-14.0933
 20
-18.2193
 11
-14.1105
 21
-18.3279
  0
LINE
  8
0
 10
-14.1105
 20
-18.3279
 11
-14.1345
 21
-18.4352
  0
LINE
  8
0
 10
-14.1345
 20
-18.4352
 11
-14.1651
 21
-18.5408
  0
LINE
  8
0
 10
-14.1651
 20
-18.5408
 11
-14.2024
 21
-18.6442
  0
LINE
  8
0
 10
-14.2024
 20
-18.6442
 11
-14.246
 21
-18.7451
  0
LINE
  8
0
 10
-14.246
 20
-18.7451
 11
-14.296
 21
-18.8431
  0
LINE
  8
0
 10
-14.296
 20
-18.8431
 11
-14.3519
 21
-18.9377
  0
LINE
  8
0
 10
-14.3519
 20
-18.9377
 11
-14.4137
 21
-19.0286
  0
LINE
  8
0
 10
-14.4137
 20
-19.0286
 11
-14.4811
 21
-19.1155
  0
LINE
  8
0
 10
-14.4811
 20
-19.1155
 11
-14.5538
 21
-19.198
  0
LINE
  8
0
 10
-14.5538
 20
-19.198
 11
-14.6315
 21
-19.2757
  0
LINE
  8
0
 10
-14.6315
 20
-19.2757
 11
-14.714
 21
-19.3484
  0
LINE
  8
0
 10
-14.714
 20
-19.3484
 11
-14.8009
 21
-19.4158
  0
LINE
  8
0
 10
-14.8009
 20
-19.4158
 11
-14.8918
 21
-19.4776
  0
LINE
  8
0
 10
-14.8918
 20
-19.4776
 11
-14.9864
 21
-19.5335
  0
LINE
  8
0
 10
-14.9864
 20
-19.5335
 11
-15.0844
 21
-19.5834
  0
LINE
  8
0
 10
-15.0844
 20
-19.5834
 11
-15.1853
 21
-19.6271
  0
LINE
  8
0
 10
-15.1853
 20
-19.6271
 11
-15.2887
 21
-19.6643
  0
LINE
  8
0
 10
-15.2887
 20
-19.6643
 11
-15.3943
 21
-19.695
  0
LINE
  8
0
 10
-15.3943
 20
-19.695
 11
-15.5016
 21
-19.719
  0
LINE
  8
0
 10
-15.5016
 20
-19.719
 11
-15.6102
 21
-19.7362
  0
LINE
  8
0
 10
-15.6102
 20
-19.7362
 11
-15.7196
 21
-19.7465
  0
LINE
  8
0
 10
-15.7196
 20
-19.7465
 11
-15.8295
 21
-19.75
  0
LINE
  8
0
 10
-15.8295
 20
-19.75
 11
-15.9394
 21
-19.7465
  0
LINE
  8
0
 10
-15.9394
 20
-19.7465
 11
-16.0488
 21
-19.7362
  0
LINE
  8
0
 10
-16.0488
 20
-19.7362
 11
-16.1574
 21
-19.719
  0
LINE
  8
0
 10
-16.1574
 20
-19.719
 11
-16.2647
 21
-19.695
  0
LINE
  8
0
 10
-16.2647
 20
-19.695
 11
-16.3703
 21
-19.6643
  0
LINE
  8
0
 10
-16.3703
 20
-19.6643
 11
-16.4737
 21
-19.6271
  0
LINE
  8
0
 10
-16.4737
 20
-19.6271
 11
-16.5746
 21
-19.5834
  0
LINE
  8
0
 10
-16.5746
 20
-19.5834
 11
-16.5961
 21
-19.5725
  0
LINE
  8
0
 10
-16.5961
 20
-19.5725
 11
-13.9481
 21
-24.1589
  0
LINE
  8
0
 10
-13.9481
 20
-24.1589
 11
13.9481
 21
-24.1589
  0
LINE
  8
0
 10
13.9481
 20
-24.1589
 11
16.5961
 21
-19.5725
  0
ENDSEC
  0
SECTION
  2
OBJECTS
  0
DICTIONARY
  0
ENDSEC
  0
EOF
